<svg xmlns="http://www.w3.org/2000/svg" xmlns:xlink="http://www.w3.org/1999/xlink" id="svg5" width="2048" height="1380" version="1.1" viewBox="0 0 2048 1380">
  <!-- <style>
    .route_available{opacity:0;cursor:pointer;transition:opacity .7s}.route_available:hover{opacity:1}.route_busy{pointer-events:none;}
  </style> -->
  <!-- <defs id="defs2">
    <linearGradient id="linearGradient9171">
      <stop id="stop9169" offset="0" style="stop-color:#ff0c00;stop-opacity:1"/>
    </linearGradient>
  </defs> -->
  <g id="train" >
    <path d="m 68.061207,230.57693 c -0.143434,0.0171 -0.286869,0.0598 -0.318744,0.0898 -0.02659,0.03 -0.148753,0.0598 -0.265631,0.0641 -0.329373,0.0128 -0.43031,0.047 -0.499371,0.16671 -0.05311,0.0941 -0.04781,0.12823 0.02659,0.19235 0.04781,0.047 0.143435,0.0812 0.201874,0.0812 0.06372,0 0.169997,0.0299 0.233748,0.0684 0.106255,0.0598 0.116878,0.10262 0.116878,0.44454 0,0.20946 -0.02122,0.42746 -0.05311,0.48729 -0.04781,0.10263 -0.07438,0.11115 -0.409058,0.11543 -0.494067,0.004 -0.828752,0.047 -0.855317,0.1154 -0.01591,0.047 0.100938,0.0514 0.653437,0.0256 l 0.669376,-0.03 -0.01591,1.27809 c -0.01591,1.19258 0.05311,10.9513 0.07968,11.06244 0.0054,0.0342 -0.350626,0.0514 -1.290937,0.0598 -0.759691,0.004 -1.317501,0.0256 -1.349376,0.0514 -0.03189,0.0256 -0.276246,0.0427 -0.552499,0.0427 h -0.494061 l -0.132812,-0.24363 c -0.122188,-0.218 -0.138129,-0.23511 -0.217814,-0.171 -0.1275,0.10263 -0.185939,0.83355 -0.116877,1.47899 0.02659,0.29068 0.07969,0.56852 0.106255,0.61126 0.06906,0.10262 0.17531,0.0769 0.196562,-0.0427 0.01061,-0.0513 0.0372,-0.0941 0.06372,-0.0941 0.02659,0 0.06906,-0.0641 0.09562,-0.14106 l 0.0425,-0.13679 0.701252,-0.004 0.701252,-0.004 -0.159382,0.11542 c -0.164688,0.11968 -0.154058,0.11968 -0.844687,0.0769 -0.159375,-0.0128 -0.185933,0.004 -0.233748,0.11113 -0.0372,0.0941 -0.03189,0.14962 0.0372,0.23937 0.06372,0.0898 0.085,0.23083 0.085,0.54714 0,0.57706 0.05841,1.08145 0.122189,1.06436 0.03189,-0.009 0.04781,-0.20518 0.0425,-0.47448 -0.01061,-0.30348 0.01061,-0.47873 0.05311,-0.52149 0.04781,-0.047 0.0425,-0.10262 -0.0319,-0.2522 -0.07969,-0.17524 -0.07969,-0.20517 -0.01061,-0.29494 0.111567,-0.13678 0.63219,-0.19662 0.775624,-0.0941 0.05311,0.0384 0.169999,0.0685 0.265624,0.0685 0.143441,0 0.19125,-0.03 0.318751,-0.2009 0.286875,-0.38043 0.276253,-0.37615 0.924378,-0.36333 0.49406,0.0128 0.568439,0.0256 0.568439,0.0854 -0.0054,0.0897 -0.164694,0.46165 -0.26563,0.60699 -0.0372,0.0598 -0.100937,0.1838 -0.138123,0.27784 -0.06372,0.17097 -0.07968,0.17953 -0.23906,0.12824 -0.06372,-0.0214 -0.106254,0.009 -0.148753,0.11114 -0.07968,0.18807 -0.07438,0.20944 0.06372,0.20944 0.175316,0 0.223126,0.0427 0.329374,0.27357 0.1275,0.26502 0.499378,0.63263 0.765002,0.75232 l 0.201873,0.0941 -0.02659,0.29495 c -0.02122,0.24364 -0.01061,0.2992 0.06372,0.32058 0.159377,0.0514 0.228438,-0.0514 0.201881,-0.30349 l -0.02659,-0.2351 0.154057,0.047 c 0.08501,0.0256 0.286876,0.0641 0.446251,0.0898 0.217814,0.03 0.345315,0.0812 0.510001,0.20517 0.169999,0.12396 0.24969,0.15816 0.355938,0.14106 0.201874,-0.03 0.286876,-0.12824 0.207192,-0.23082 -0.06907,-0.0897 -0.07969,-0.84635 -0.01591,-1.4448 0.02659,-0.28639 0.01591,-0.38898 -0.05311,-0.51292 -0.185932,-0.34198 -0.180621,-0.37617 0.100943,-0.49158 0.143436,-0.0556 0.28687,-0.13679 0.324063,-0.17098 0.0425,-0.0384 0.100937,-0.0685 0.143434,-0.0685 0.0372,0 0.09031,-0.0342 0.116878,-0.0727 0.04781,-0.0641 0.233748,-0.0727 1.901875,-0.0898 l 1.854059,-0.0171 0.148753,0.23938 0.143434,0.24364 -0.111565,0.11969 c -0.143435,0.15389 -0.100937,0.27784 0.1275,0.35052 0.09562,0.03 0.207192,0.0941 0.249689,0.13677 0.07438,0.0684 0.127502,0.077 0.393126,0.0514 0.26563,-0.03 0.324062,-0.0514 0.398442,-0.15388 0.100936,-0.14533 0.302809,-0.22226 0.54187,-0.20089 l 0.180627,0.0128 0.0425,0.29922 c 0.03189,0.19662 0.02122,0.41889 -0.02122,0.64972 -0.085,0.46165 -0.0425,0.82925 0.122182,1.03016 0.07438,0.0855 0.143441,0.19235 0.164687,0.2351 0.05311,0.11113 0.467503,0.54286 0.520631,0.54286 0.02659,0 0.07438,0.047 0.100937,0.10691 0.0372,0.0769 0.09031,0.1069 0.185938,0.1069 0.07968,0 0.132812,0.0256 0.132812,0.0598 0,0.0343 0.0425,0.0727 0.09562,0.0854 0.04781,0.0171 0.212496,0.17526 0.355937,0.3548 0.148746,0.18379 0.334685,0.39325 0.419687,0.47446 0.08499,0.077 0.143434,0.14534 0.132812,0.15816 -0.01591,0.009 -1.540627,0 -3.394686,-0.0214 -1.854068,-0.0214 -5.280629,-0.0513 -7.607503,-0.0684 l -4.239373,-0.0299 v 0.76942 0.7694 l 4.558123,0.0384 c 2.502184,0.0214 14.088749,0.0427 25.749683,0.047 11.66094,0.009 21.65375,0.0128 22.20624,0.0171 1.81156,0.0128 13.84438,-0.047 14.67843,-0.0727 l 0.80751,-0.0257 v -0.72667 -0.72667 l -8.19188,0.0299 -8.19718,0.0343 0.16469,-0.14962 c 0.085,-0.0812 0.2975,-0.32485 0.46749,-0.53859 0.27094,-0.34196 0.32939,-0.39326 0.45689,-0.39326 0.085,0 0.15937,0.0256 0.1753,0.0514 0.0159,0.0427 0.0372,0.0427 0.10626,0 0.0585,-0.0427 0.11156,-0.047 0.18593,-0.0128 0.13282,0.0557 0.17,0.0214 0.17,-0.16244 0,-0.12823 0.0319,-0.17096 0.18062,-0.25219 0.10094,-0.0556 0.19126,-0.14532 0.20189,-0.19235 0.0106,-0.0598 0.0584,-0.0984 0.13281,-0.10691 0.22312,-0.0257 0.23905,-0.0898 0.24437,-1.02589 v -0.89765 l 0.1275,0.004 c 0.0691,0 0.16468,-0.03 0.21781,-0.0684 0.0478,-0.0343 0.13813,-0.0727 0.19656,-0.0812 0.0797,-0.009 0.11156,-0.0556 0.13282,-0.18379 0.0159,-0.0984 0.0957,-0.24366 0.18062,-0.33341 l 0.14875,-0.15816 h 1.81687 c 1.34407,0 1.83282,0.0128 1.88064,0.0514 0.0425,0.0342 0.0637,0.21371 0.0584,0.54713 -0.005,0.82499 -0.085,1.98766 -0.14344,2.07741 -0.0638,0.0941 0.0319,0.23083 0.15937,0.23083 0.16469,0 0.52063,-0.17526 0.52063,-0.25647 0,-0.0598 0.0478,-0.0898 0.20187,-0.1069 0.71187,-0.0983 1.32814,-0.50867 1.53,-1.02162 0.0797,-0.20945 0.0797,-0.24792 0,-0.58133 -0.085,-0.32487 -0.23906,-0.59844 -0.34531,-0.59844 -0.0585,0 -0.44624,-0.42744 -0.41437,-0.45736 0.0213,-0.0128 0.15406,-0.0342 0.2975,-0.047 0.23906,-0.0171 0.28155,-0.004 0.51531,0.13678 0.26031,0.16244 0.66938,0.28211 0.95093,0.28211 0.10094,0 0.20719,0.0341 0.26563,0.0854 0.0956,0.0812 0.0903,0.0941 -0.0106,0.37616 -0.0638,0.15817 -0.19656,0.44883 -0.3028,0.64973 -0.22845,0.436 -0.23908,0.56423 -0.0585,0.69246 0.10094,0.0685 0.11687,0.10263 0.0744,0.14962 -0.0531,0.047 0.0584,0.0557 0.60562,0.0557 0.49406,0 0.67469,-0.0129 0.7225,-0.0598 0.0372,-0.0343 0.22843,-0.0641 0.51531,-0.0812 0.30282,-0.0128 0.47282,-0.0427 0.50469,-0.0769 0.0638,-0.0812 0.0585,-0.0898 -0.0478,-0.19664 -0.13282,-0.13677 -0.62157,-0.18808 -1.50875,-0.15388 -0.42501,0.0128 -0.73314,0.009 -0.73314,-0.0128 0,-0.0213 0.14876,-0.27784 0.3347,-0.57279 0.25499,-0.41462 0.35593,-0.53858 0.44624,-0.54714 0.10094,-0.0128 0.49407,-0.31203 0.5525,-0.41889 0.0691,-0.13252 1.0147,-0.31631 1.20594,-0.2351 0.15407,0.0684 0.595,0.0598 0.69594,-0.0128 0.14344,-0.10263 0.29218,-0.0941 0.44094,0.03 0.14343,0.1154 0.39312,0.15389 0.60031,0.0898 0.10093,-0.0343 0.24969,-0.26502 0.34531,-0.53859 0.0957,-0.29068 0.0478,-0.90193 -0.0903,-1.14558 -0.15936,-0.27357 -0.39312,-0.45737 -0.62687,-0.49584 -0.19656,-0.03 -0.23905,-0.0171 -0.73844,0.20518 -0.13812,0.0598 -0.32405,0.0727 -1.09968,0.0769 h -0.935 l -0.0372,-0.70958 c -0.0372,-0.6882 -0.0159,-0.83353 0.11688,-0.76941 0.0266,0.0128 0.0638,0.0854 0.0797,0.16671 0.0585,0.30776 0.31343,0.89337 0.36656,0.85063 0.0319,-0.0257 0.005,-0.17954 -0.085,-0.44883 -0.0744,-0.22228 -0.13811,-0.42745 -0.13811,-0.44884 0,-0.0769 0.22312,-0.22226 0.34531,-0.22226 0.0637,0 0.16469,-0.0427 0.22844,-0.0983 0.11687,-0.0984 0.11687,-0.11969 0.11687,-1.53456 0,-1.71408 0.0478,-1.59867 -0.61626,-1.55592 l -0.43562,0.03 -0.0372,-0.15817 c -0.0159,-0.0854 -0.0319,-0.76514 -0.0319,-1.5089 0,-1.42342 -0.016,-2.02185 -0.0585,-2.08169 -0.0159,-0.0214 -0.0372,-0.8549 -0.0478,-1.85515 l -0.0212,-1.81667 0.39843,-0.0128 c 0.30813,-0.009 0.41437,-0.03 0.47812,-0.0897 0.0744,-0.0641 0.22313,-0.0855 0.98282,-0.12825 0.96155,-0.0557 1.21125,-0.0898 1.18469,-0.14961 -0.0266,-0.0556 -1.32813,-0.004 -1.96563,0.0812 -0.20718,0.0256 -0.19125,-0.0514 0.0638,-0.45311 0.18594,-0.28639 0.20187,-0.34622 0.15406,-0.45736 -0.0531,-0.12396 -0.0585,-0.12396 -0.59499,-0.16244 -0.62157,-0.0427 -0.69063,-0.0427 -3.03876,-0.009 -1.21125,0.0214 -2.08781,0.009 -2.84219,-0.03 -0.6003,-0.03 -1.2803,-0.0427 -1.51406,-0.0256 -0.23375,0.0128 -0.71187,0.009 -1.06249,-0.009 -0.35062,-0.0171 -1.93906,-0.0256 -3.53282,-0.0128 -1.59374,0.0128 -3.6125,0.004 -4.48905,-0.0171 -0.87657,-0.0214 -3.06532,-0.0514 -4.86094,-0.0641 -8.978126,-0.0641 -9.376562,-0.0685 -9.456252,-0.12398 -0.138124,-0.0983 -0.387813,-0.1069 -1.55125,-0.0684 -0.929689,0.0342 -1.296249,0.03 -2.066562,-0.03 -0.87125,-0.0684 -0.961564,-0.0684 -1.328124,0 -0.499372,0.0898 -0.733127,0.0898 -10.008742,0.0598 -7.304695,-0.0256 -11.958443,-0.0898 -12.054062,-0.16244 -0.03189,-0.0214 -0.03189,-0.0384 -0.01061,-0.0384 0.02659,0 0.01591,-0.03 -0.02122,-0.0641 -0.07438,-0.0727 -0.573751,-0.0812 -1.035943,-0.0171 z m 59.282173,9.51509 c 0.0372,0.0983 -0.005,1.68415 -0.0478,1.71407 -0.0159,0.0171 -0.19125,0.0341 -0.38781,0.0427 -0.34531,0.0171 -0.36125,0.0128 -0.425,-0.0941 -0.0903,-0.16242 -0.0903,-1.59012 0.005,-1.63714 0.0744,-0.0384 0.41438,-0.0854 0.65875,-0.0941 0.11687,-0.004 0.17531,0.0171 0.19656,0.0685 z m -0.16469,1.89786 c 0.18063,0.077 0.19656,0.1197 0.19656,0.53861 0,0.436 -0.0531,0.52575 -0.31875,0.52575 h -0.14874 l -0.0213,-0.52575 c -0.0106,-0.28641 -0.0159,-0.53432 -0.005,-0.5557 0.0319,-0.0427 0.16468,-0.0384 0.2975,0.0171 z m -0.60562,0.21801 c 0.0372,0.10263 0.0584,0.3377 0.0478,0.52577 -0.0106,0.27784 -0.0319,0.34197 -0.10625,0.35479 -0.0797,0.0128 -0.0903,-0.047 -0.10624,-0.51294 -0.0106,-0.29067 -0.0106,-0.53859 0,-0.55997 0.0372,-0.0641 0.10624,0.0171 0.16469,0.19235 z m -50.835299,4.37285 c 0.148754,0.12822 0.106249,0.17952 -0.09562,0.12394 -0.085,-0.0256 -0.148752,-0.0769 -0.159375,-0.13679 -0.02659,-0.12822 0.09562,-0.11967 0.255,0.0128 z m 10.253122,-0.0685 c 0,0.0214 -0.03189,0.0598 -0.07438,0.0854 -0.085,0.0556 -0.169999,-0.009 -0.11156,-0.0812 0.0425,-0.0514 0.185933,-0.0557 0.185933,-0.004 z m 2.252501,0.004 c -0.02659,0.0214 -0.180628,0.0514 -0.339997,0.0598 -0.159382,0.0128 -0.531253,0.0427 -0.82344,0.0727 -0.297499,0.03 -0.626872,0.0384 -0.738439,0.0214 -0.196562,-0.03 -0.196562,-0.0342 -0.106248,-0.1154 0.08501,-0.0727 0.169999,-0.0812 1.078435,-0.0812 0.653436,0 0.966875,0.0128 0.929689,0.0427 z m -19.87406,0.11541 c 0.01591,0.0214 0.0425,0.0984 0.06372,0.17098 0.0425,0.17953 -0.05311,0.18807 -0.286875,0.03 -0.223126,-0.14959 -0.212497,-0.23083 0.01591,-0.23083 0.100937,0 0.196562,0.0128 0.207185,0.03 z m 54.904676,0.17098 c 0.44093,0.25647 0.595,0.41035 0.70124,0.6882 0.13282,0.34624 0.13282,0.436 -0.0106,0.67965 -0.21251,0.3676 -0.66406,0.6369 -1.24312,0.73949 -0.13813,0.0256 -0.29219,0.0641 -0.35063,0.0898 -0.0584,0.0257 -0.11688,0.0342 -0.13281,0.0257 -0.0106,-0.0128 0.0159,-0.14105 0.0691,-0.2864 0.0744,-0.21801 0.0797,-0.28639 0.0266,-0.43172 -0.0584,-0.14962 -0.0531,-0.18808 0.016,-0.24791 0.12749,-0.11543 0.12218,-0.75233 -0.005,-0.81644 -0.0903,-0.0427 -0.0903,-0.0427 0,-0.0855 0.0478,-0.0256 0.0903,-0.0727 0.0903,-0.10262 0,-0.0342 0.0585,-0.0727 0.1275,-0.0855 0.0797,-0.0171 0.14875,-0.0727 0.18062,-0.15387 0.0744,-0.16672 0.26562,-0.17099 0.53126,-0.0128 z m -54.909987,0.29922 c 0.07968,0.0128 0.159376,0.0557 0.17531,0.0983 0.0425,0.11115 0.05311,0.46165 0.01061,0.49585 -0.01591,0.0171 -0.138123,-0.004 -0.265623,-0.0427 -0.122189,-0.0384 -0.281565,-0.0685 -0.345308,-0.0685 -0.06372,0 -0.143441,-0.0384 -0.180627,-0.0854 -0.0372,-0.047 -0.106249,-0.0855 -0.154065,-0.0855 -0.164686,0 -0.212496,-0.29922 -0.07438,-0.51293 0.11156,-0.17953 0.18594,-0.17526 0.451563,0.009 0.127501,0.0941 0.30281,0.17952 0.382501,0.19234 z m 0.887184,0.0727 c 0.06907,0.34196 0.06907,0.38044 -0.01591,0.44455 -0.08501,0.0684 -0.100937,0.0641 -0.223126,-0.0556 -0.06906,-0.0685 -0.154064,-0.22655 -0.185939,-0.3505 -0.06372,-0.218 -0.05842,-0.22228 0.09031,-0.32913 0.085,-0.0598 0.180628,-0.10263 0.207184,-0.0941 0.03189,0.004 0.085,0.17954 0.127501,0.38472 z m 17.961561,-0.12822 c 0,0.19661 0.04781,0.23509 0.244378,0.20516 0.100937,-0.0128 0.11156,-0.0384 0.09031,-0.17952 -0.02659,-0.13679 -0.01061,-0.16671 0.085,-0.19236 0.07438,-0.0171 0.164686,-0.004 0.244377,0.0384 0.06906,0.0384 0.185933,0.0684 0.249683,0.0684 0.06906,0 0.244378,0.047 0.387813,0.10691 0.148752,0.0556 0.318751,0.1069 0.377189,0.1069 0.06372,0 0.1275,0.0299 0.148753,0.0641 0.01591,0.0342 0.09031,0.0641 0.164686,0.0641 0.08499,0 0.132812,-0.0256 0.132812,-0.0641 0,-0.0556 0.164687,-0.0641 1.142185,-0.0641 h 1.142191 v 0.15816 c 0,0.0898 0.0372,0.34623 0.07968,0.56851 0.0425,0.22227 0.07968,0.50439 0.07968,0.62835 0,0.22228 0,0.22228 0.18594,0.2522 0.100936,0.0128 0.228436,0.0128 0.276253,0 0.07968,-0.0257 0.06906,-0.0427 -0.05311,-0.12396 -0.164688,-0.10263 -0.207192,-0.27784 -0.276253,-1.06863 l -0.03189,-0.41463 h 1.174066 c 1.078435,0 1.189993,-0.009 1.386562,-0.0898 0.207185,-0.0812 0.276246,-0.0854 1.657497,-0.0641 0.796878,0.0128 1.535316,0.0342 1.641564,0.0514 0.111559,0.0171 0.255,0.0812 0.339996,0.1496 0.100944,0.0855 0.20188,0.12396 0.318751,0.12396 0.143441,0 0.164687,0.0128 0.143441,0.0854 -0.02659,0.0812 0,0.0855 0.393124,0.0855 0.563122,0 0.919059,0.0427 0.919059,0.1069 0,0.03 0.05311,0.10691 0.116878,0.17526 0.08499,0.0854 0.127507,0.20518 0.154067,0.42744 0.0266,0.20518 0.0903,0.40182 0.20187,0.5899 0.13813,0.23935 0.18062,0.28211 0.2975,0.28211 0.0744,0 0.18063,-0.0384 0.23906,-0.0854 0.13282,-0.10691 0.30282,-0.11113 0.41437,-0.004 0.1275,0.11968 0.43564,0.0769 0.43564,-0.0598 0,-0.0514 0.0372,-0.11969 0.0797,-0.14962 0.11156,-0.0769 0.10094,-0.11541 -0.0478,-0.14532 -0.11156,-0.0214 -0.13281,-0.0641 -0.21781,-0.49585 -0.0531,-0.26075 -0.085,-0.48302 -0.0691,-0.49156 0.0106,-0.009 0.30812,-0.0214 0.65875,-0.0256 0.55781,-0.004 0.66937,0.009 0.84999,0.0855 0.11157,0.0514 0.22313,0.0898 0.24438,0.0898 0.0797,0 0.22312,-0.23081 0.255,-0.4018 l 0.0266,-0.17525 2.22062,-0.0128 c 1.74251,-0.009 2.22594,0.004 2.24188,0.0427 0.0106,0.0299 0.0584,0.38471 0.10094,0.79079 0.0691,0.71385 0.0797,0.74377 0.26562,1.00879 0.2125,0.31204 0.52593,0.66682 0.77563,0.88483 0.0903,0.0812 0.28156,0.29493 0.42499,0.47019 0.14344,0.17525 0.36125,0.41463 0.48876,0.53004 l 0.22843,0.20944 -0.55781,-0.0256 c -0.30812,-0.0171 -6.14125,-0.0384 -12.962495,-0.0514 -6.821247,-0.0128 -12.627809,-0.0342 -12.904055,-0.047 l -0.494067,-0.0256 0.180627,-0.15817 c 0.270936,-0.23082 0.435622,-0.42317 0.594997,-0.69675 0.111567,-0.19234 0.180628,-0.25219 0.286876,-0.27356 0.228437,-0.0384 0.302817,-0.0812 0.318751,-0.20517 0.01061,-0.0727 0.04781,-0.11114 0.111566,-0.11114 0.06372,0 0.175309,-0.13251 0.36656,-0.42745 0.265623,-0.41891 0.276253,-0.44028 0.276253,-0.78651 0,-0.19664 0.01591,-0.52578 0.03189,-0.7395 0.03189,-0.36333 0.04781,-0.39324 0.228431,-0.55996 l 0.19125,-0.17954 0.531253,-0.0128 c 0.292188,-0.004 0.584375,-0.0171 0.653436,-0.0213 0.106248,-0.009 0.116878,0.009 0.116878,0.17953 z m -9.913118,-0.0128 c 0.106249,0.0514 0.191244,0.11968 0.185933,0.15815 -0.0054,0.12824 -0.185933,0.32914 -0.308122,0.34195 -0.201879,0.0256 -0.270941,-0.0641 -0.270941,-0.33768 0,-0.22227 0.01061,-0.25219 0.100937,-0.25219 0.05841,0 0.19125,0.0384 0.292193,0.0897 z m -9.64219,0.7694 c 0.159375,0.047 0.164687,0.0556 0.164687,0.29923 0,0.13678 -0.02122,0.25218 -0.0425,0.25218 -0.05842,0 -0.472815,-0.3505 -0.49938,-0.42743 -0.02122,-0.047 0.08501,-0.1368 0.201881,-0.171 0.0054,0 0.07968,0.0214 0.17531,0.047 z m 0.913748,0.2693 c 0.122189,0.12396 0.350626,0.14534 0.525942,0.0556 0.143435,-0.0684 0.185933,-0.009 0.233748,0.29066 0.05311,0.36763 0.05842,0.36334 -0.610938,0.22655 -0.31875,-0.0641 -0.605625,-0.12823 -0.637501,-0.14105 -0.05311,-0.03 -0.06372,-0.40181 -0.01591,-0.51294 0.05311,-0.10691 0.371871,-0.0556 0.504683,0.0812 z" style="fill-opacity:1;stroke:#000;stroke-width:1.05833333;stroke-linecap:round;stroke-linejoin:round;stroke-miterlimit:4;stroke-dasharray:none;stroke-opacity:1;paint-order:markers fill stroke" transform="translate(-62.407 -229.74)"/>
  </g>
  <image xlink:href="gamefield-w2048.jpg" id="image17" width="2048" height="1380" x="2.75" y="1.375" preserveAspectRatio="none" style="stroke-width:3;stroke-miterlimit:4;stroke-dasharray:none"/>
  <g class="route route_available" transform="translate(-.369 .134)">
    <use xlink:href="#train" x="230.241" y="-241.715" transform="rotate(67.116)"/>
    <use xlink:href="#train" x="306.831" y="-241.953" transform="rotate(67.116)"/>
    <use xlink:href="#train" x="381.943" y="-241.184" transform="rotate(67.116)"/>
    <use xlink:href="#train" x="455.213" y="-241.193" transform="rotate(67.116)"/>
  </g>
  <use xlink:href="#train" x="-223.033" y="734.152" class="route route_available" transform="rotate(-66.939)"/>
  <g class="route route_available" transform="rotate(-61.008 729.329 428.963)">
    <use xlink:href="#train" x="230.241" y="-241.715" transform="rotate(67.116)"/>
    <use xlink:href="#train" x="306.831" y="-241.953" transform="rotate(67.116)"/>
    <use xlink:href="#train" x="381.943" y="-241.184" transform="rotate(67.116)"/>
  </g>
  <g class="route route_available" transform="rotate(-92.475 756.507 111.386)">
    <use xlink:href="#train" x="230.241" y="-241.715" transform="rotate(67.116)"/>
    <use xlink:href="#train" x="306.831" y="-241.953" transform="rotate(67.116)"/>
    <use xlink:href="#train" x="381.943" y="-241.184" transform="rotate(67.116)"/>
  </g>
  <g class="route route_available" transform="rotate(12.526 -2854.62 3360.37)">
    <use xlink:href="#train" x="230.241" y="-241.715" transform="rotate(67.116)"/>
    <use xlink:href="#train" x="306.831" y="-241.953" transform="rotate(67.116)"/>
  </g>
  <g class="route route_available" transform="rotate(-119.45 804.555 -72.012)">
    <use xlink:href="#train" x="289.381" y="-119.439" transform="rotate(46.467)"/>
    <use xlink:href="#train" x="306.831" y="-241.953" transform="rotate(67.116)"/>
    <use xlink:href="#train" x="207.095" y="-408.872" transform="rotate(99.175)"/>
  </g>
  <g class="route route_available" transform="rotate(-75.036 1832.704 -258.393)">
    <use xlink:href="#train" x="17.015" y="-379.283" transform="rotate(105.536)"/>
    <use xlink:href="#train" x="306.831" y="-241.953" transform="rotate(67.116)"/>
    <use xlink:href="#train" x="206.344" y="390.492" transform="rotate(-24.787)"/>
  </g>
  <g class="route route_available" transform="rotate(-80.884 689.774 144.421)">
    <use xlink:href="#train" x="230.241" y="-241.715" transform="rotate(67.116)"/>
    <use xlink:href="#train" x="-23.325" y="-397.836" transform="rotate(125.159)"/>
  </g>
  <g class="route route_available" transform="rotate(-61.11 830.716 -184.93)">
    <use xlink:href="#train" x="230.241" y="-241.715" transform="rotate(67.116)"/>
    <use xlink:href="#train" x="306.831" y="-241.953" transform="rotate(67.116)"/>
  </g>
  <g class="route route_available" transform="rotate(-140.122 507.944 536.072)">
    <use xlink:href="#train" x="141.893" y="-329.12" transform="rotate(84.685)"/>
    <use xlink:href="#train" x="277.144" y="-280.604" transform="rotate(73.672)"/>
    <use xlink:href="#train" x="381.943" y="-241.184" transform="rotate(67.116)"/>
    <use xlink:href="#train" x="492.019" y="-151.865" transform="rotate(56.476)"/>
  </g>
  <g class="route route_available" transform="rotate(-116.743 907.879 152.492)">
    <use xlink:href="#train" x="149.238" y="-325.133" transform="rotate(83.872)"/>
    <use xlink:href="#train" x="277.144" y="-280.604" transform="rotate(73.672)"/>
    <use xlink:href="#train" x="398.815" y="-206.338" transform="rotate(62.555)"/>
    <use xlink:href="#train" x="492.282" y="-154.255" transform="rotate(56.476)"/>
  </g>
  <g class="route route_available" transform="rotate(12.284 -2090.718 3170.856)">
    <use xlink:href="#train" x="230.241" y="-241.715" transform="rotate(67.116)"/>
    <use xlink:href="#train" x="306.831" y="-241.953" transform="rotate(67.116)"/>
  </g>
  <g class="route route_available" transform="rotate(-121.698 1007.694 -107.745)">
    <use xlink:href="#train" x="230.241" y="-241.715" transform="rotate(67.116)"/>
    <use xlink:href="#train" x="306.831" y="-241.953" transform="rotate(67.116)"/>
    <use xlink:href="#train" x="381.943" y="-241.184" transform="rotate(67.116)"/>
    <use xlink:href="#train" x="455.213" y="-241.193" transform="rotate(67.116)"/>
  </g>
  <g class="route route_available" transform="rotate(-38.222 2182.677 -1033.274)">
    <use xlink:href="#train" x="230.241" y="-241.715" transform="rotate(67.116)"/>
    <use xlink:href="#train" x="306.831" y="-241.953" transform="rotate(67.116)"/>
    <use xlink:href="#train" x="381.943" y="-241.184" transform="rotate(67.116)"/>
  </g>
  <g class="route route_available" transform="rotate(-55.2 1275.143 973.688)">
    <use xlink:href="#train" x="-75.798" y="-390.528" transform="rotate(119.07)"/>
    <use xlink:href="#train" x="306.831" y="-241.953" transform="rotate(67.116)"/>
  </g>
  <g class="route route_available" transform="rotate(-102.224 561.862 298.656)">
    <use xlink:href="#train" x="230.241" y="-241.715" transform="rotate(67.116)"/>
    <use xlink:href="#train" x="306.831" y="-241.953" transform="rotate(67.116)"/>
  </g>
  <g class="route route_available" transform="rotate(-92.008 740.412 101)">
    <use xlink:href="#train" x="230.241" y="-241.715" transform="rotate(67.116)"/>
    <use xlink:href="#train" x="-286.021" y="-333.136" transform="rotate(156.228)"/>
  </g>
  <g class="route route_available" transform="rotate(-140.122 523.498 535.476)">
    <use xlink:href="#train" x="141.893" y="-329.12" transform="rotate(84.685)"/>
    <use xlink:href="#train" x="277.144" y="-280.604" transform="rotate(73.672)"/>
    <use xlink:href="#train" x="381.943" y="-241.184" transform="rotate(67.116)"/>
    <use xlink:href="#train" x="492.019" y="-151.865" transform="rotate(56.476)"/>
  </g>
  <g class="route route_available" transform="rotate(-38.594 1516.154 -210.196)">
    <use xlink:href="#train" x="230.241" y="-241.715" transform="rotate(67.116)"/>
    <use xlink:href="#train" x="306.831" y="-241.953" transform="rotate(67.116)"/>
  </g>
  <g class="route route_available" transform="rotate(-7.23 3590.637 -5189.042)">
    <use xlink:href="#train" x="172.151" y="-306.365" transform="rotate(79.745)"/>
    <use xlink:href="#train" x="306.831" y="-241.953" transform="rotate(67.116)"/>
    <use xlink:href="#train" x="411.536" y="-185.699" transform="rotate(59.342)"/>
  </g>
  <g class="route route_available" transform="rotate(-33.983 941.381 -1485.371)">
    <use xlink:href="#train" x="-199.726" y="-405.714" transform="rotate(133.047)"/>
    <use xlink:href="#train" x="123.851" y="-405.164" transform="rotate(98.873)"/>
    <use xlink:href="#train" x="381.943" y="-241.184" transform="rotate(67.116)"/>
    <use xlink:href="#train" x="455.213" y="-241.193" transform="rotate(67.116)"/>
  </g>
  <g class="route route_available" transform="rotate(-156.84 1218.652 264.883)">
    <use xlink:href="#train" x="230.241" y="-241.715" transform="rotate(67.116)"/>
    <use xlink:href="#train" x="-286.021" y="-333.136" transform="rotate(156.228)"/>
  </g>
  <g class="route route_available" transform="rotate(25.57 -1203.951 2709.399)">
    <use xlink:href="#train" x="230.241" y="-241.715" transform="rotate(67.116)"/>
    <use xlink:href="#train" x="306.831" y="-241.953" transform="rotate(67.116)"/>
    <use xlink:href="#train" x="381.943" y="-241.184" transform="rotate(67.116)"/>
    <use xlink:href="#train" x="247.094" y="431.126" transform="rotate(-22.693)"/>
  </g>
  <g class="route route_available" transform="translate(26.001 -10.265)">
    <use xlink:href="#train" x="230.241" y="-241.715" transform="rotate(67.116)"/>
    <use xlink:href="#train" x="306.831" y="-241.953" transform="rotate(67.116)"/>
    <use xlink:href="#train" x="381.943" y="-241.184" transform="rotate(67.116)"/>
    <use xlink:href="#train" x="455.213" y="-241.193" transform="rotate(67.116)"/>
  </g>
  <g class="route route_available" transform="rotate(-96.484 499.911 399.194)">
    <use xlink:href="#train" x="230.241" y="-241.715" transform="rotate(67.116)"/>
    <use xlink:href="#train" x="163.687" y="-360.858" transform="rotate(95.406)"/>
  </g>
  <g class="route route_available" transform="rotate(-97.32 702.133 301.868)">
    <use xlink:href="#train" x="174.69" y="-302.217" transform="rotate(79.13)"/>
    <use xlink:href="#train" x="306.831" y="-241.953" transform="rotate(67.116)"/>
    <use xlink:href="#train" x="406.32" y="-200.805" transform="rotate(61.185)"/>
  </g>
  <g class="route route_available" transform="rotate(-64.26 1086.555 -33.834)">
    <use xlink:href="#train" x="-55.467" y="-392.069" transform="rotate(116.652)"/>
    <use xlink:href="#train" x="306.831" y="-241.953" transform="rotate(67.116)"/>
    <use xlink:href="#train" x="443.543" y="82.983" transform="rotate(24.028)"/>
  </g>
  <g class="route route_available" transform="rotate(-109.721 976.06 215.242)">
    <use xlink:href="#train" x="230.241" y="-241.715" transform="rotate(67.116)"/>
    <use xlink:href="#train" x="364.641" y="-131.236" transform="rotate(48.678)"/>
  </g>
  <g class="route route_available" transform="rotate(-61.11 1289.303 -1004.753)">
    <use xlink:href="#train" x="230.241" y="-241.715" transform="rotate(67.116)"/>
    <use xlink:href="#train" x="384.574" y="42.576" transform="rotate(22.028)"/>
  </g>
  <g class="route route_available" transform="rotate(-73.34 1744.351 -120.043)">
    <use xlink:href="#train" x="195.548" y="-283.394" transform="rotate(75.322)"/>
    <use xlink:href="#train" x="306.831" y="-241.953" transform="rotate(67.116)"/>
    <use xlink:href="#train" x="442.813" y="-76.501" transform="rotate(44.55)"/>
  </g>
  <g class="route route_available" transform="rotate(-87.411 877.833 772.311)">
    <use xlink:href="#train" x="230.241" y="-241.715" transform="rotate(67.116)"/>
    <use xlink:href="#train" x="-286.021" y="-333.136" transform="rotate(156.228)"/>
    <use xlink:href="#train" x="-196.258" y="-425.555" transform="rotate(130.498)"/>
  </g>
  <g class="route route_available" transform="rotate(-129.454 547.01 341.096)">
    <use xlink:href="#train" x="230.241" y="-241.715" transform="rotate(67.116)"/>
    <use xlink:href="#train" x="306.831" y="-241.953" transform="rotate(67.116)"/>
  </g>
  <g class="route route_available" transform="rotate(-30.625 1604.29 257.93)">
    <use xlink:href="#train" x="356.501" y="22.77" transform="rotate(50.66)"/>
    <use xlink:href="#train" x="-7.28" y="403.483" transform="rotate(-37.852)"/>
    <use xlink:href="#train" x="424.586" y="67.219" transform="rotate(31.404)"/>
    <use xlink:href="#train" x="492.019" y="-151.865" transform="rotate(56.476)"/>
  </g>
  <g class="route route_available" transform="rotate(-92.475 775.06 118.02)">
    <use xlink:href="#train" x="230.241" y="-241.715" transform="rotate(67.116)"/>
    <use xlink:href="#train" x="306.831" y="-241.953" transform="rotate(67.116)"/>
    <use xlink:href="#train" x="381.943" y="-241.184" transform="rotate(67.116)"/>
  </g>
  <use xlink:href="#train" x="1343.644" y="-2.781" class="route route_available" transform="rotate(31.37)"/>
  <g class="route route_available" transform="rotate(-68.95 1308.36 -652.747)">
    <use xlink:href="#train" x="211.286" y="-263.944" transform="rotate(71.287)"/>
    <use xlink:href="#train" x="384.574" y="42.576" transform="rotate(22.028)"/>
    <use xlink:href="#train" x="187.113" y="419.611" transform="rotate(-38.635)"/>
  </g>
  <g class="route route_available" transform="rotate(-33.52 1152.56 -1490.764)">
    <use xlink:href="#train" x="114.555" y="316.812" transform="rotate(-29.542)"/>
    <use xlink:href="#train" x="384.574" y="42.576" transform="rotate(22.028)"/>
    <use xlink:href="#train" x="374.134" y="-293.079" transform="rotate(66.175)"/>
  </g>
  <g class="route route_available" transform="rotate(-149.556 1276.873 435.846)">
    <use xlink:href="#train" x="230.241" y="-241.715" transform="rotate(67.116)"/>
    <use xlink:href="#train" x="306.831" y="-241.953" transform="rotate(67.116)"/>
    <use xlink:href="#train" x="381.943" y="-241.184" transform="rotate(67.116)"/>
  </g>
  <g class="route route_available" transform="rotate(-30.701 2176.593 -833.609)">
    <use xlink:href="#train" x="-35.556" y="-389.234" transform="rotate(113.372)"/>
    <use xlink:href="#train" x="306.831" y="-241.953" transform="rotate(67.116)"/>
    <use xlink:href="#train" x="411.549" y="181.103" transform="rotate(10.74)"/>
  </g>
  <g class="route route_available" transform="rotate(-43.618 972.34 462.85)">
    <use xlink:href="#train" x="230.241" y="-241.715" transform="rotate(67.116)"/>
    <use xlink:href="#train" x="137.488" y="-372.716" transform="rotate(99.826)"/>
    <use xlink:href="#train" x="32.158" y="-429.936" transform="rotate(126.522)"/>
    <use xlink:href="#train" x="56.638" y="-439.693" transform="rotate(133.567)"/>
  </g>
  <g class="route route_available" transform="rotate(-144.088 647.718 475.083)">
    <use xlink:href="#train" x="230.241" y="-241.715" transform="rotate(67.116)"/>
    <use xlink:href="#train" x="306.831" y="-241.953" transform="rotate(67.116)"/>
  </g>
  <g class="route route_available" transform="rotate(-82.509 868.532 122.62)">
    <use xlink:href="#train" x="230.241" y="-241.715" transform="rotate(67.116)"/>
    <use xlink:href="#train" x="-314.614" y="-260.456" transform="rotate(156.228)"/>
  </g>
  <g class="route route_available" transform="rotate(-67.909 883.379 -262.883)">
    <use xlink:href="#train" x="285.101" y="-121.697" transform="rotate(47.766)"/>
    <use xlink:href="#train" x="326.757" y="-200.135" transform="rotate(60.996)"/>
    <use xlink:href="#train" x="381.943" y="-241.184" transform="rotate(67.116)"/>
    <use xlink:href="#train" x="417.936" y="-306.163" transform="rotate(75.654)"/>
  </g>
  <g class="route route_available" transform="rotate(14.294 -1822.689 4159.698)">
    <use xlink:href="#train" x="230.241" y="-241.715" transform="rotate(67.116)"/>
    <use xlink:href="#train" x="306.831" y="-241.953" transform="rotate(67.116)"/>
    <use xlink:href="#train" x="381.943" y="-241.184" transform="rotate(67.116)"/>
  </g>
  <g class="route route_available" transform="rotate(29.741 -871.754 2553.403)">
    <use xlink:href="#train" x="45.6" y="-371.631" transform="rotate(101.31)"/>
    <use xlink:href="#train" x="306.831" y="-241.953" transform="rotate(67.116)"/>
    <use xlink:href="#train" x="448.052" y="30.593" transform="rotate(30.803)"/>
  </g>
  <g class="route route_available" transform="rotate(-156.8 284.53 685.954)">
    <use xlink:href="#train" x="230.241" y="-241.715" transform="rotate(67.116)"/>
    <use xlink:href="#train" x="-244.163" y="-329.018" transform="rotate(157.123)"/>
    <use xlink:href="#train" x="-314.745" y="-176.031" transform="rotate(-167.797)"/>
  </g>
  <g class="route route_available" transform="rotate(-22.503 1273.23 -614.255)">
    <use xlink:href="#train" x="230.241" y="-241.715" transform="rotate(67.116)"/>
    <use xlink:href="#train" x="306.831" y="-241.953" transform="rotate(67.116)"/>
  </g>
  <g class="route route_available" transform="rotate(-107.323 667.186 -78.977)">
    <use xlink:href="#train" x="250.661" y="-211.332" transform="rotate(61.703)"/>
    <use xlink:href="#train" x="306.831" y="-241.953" transform="rotate(67.116)"/>
    <use xlink:href="#train" x="322.161" y="-321.278" transform="rotate(79.94)"/>
  </g>
  <g class="route route_available" transform="rotate(-97.32 683.409 295.836)">
    <use xlink:href="#train" x="174.69" y="-302.217" transform="rotate(79.13)"/>
    <use xlink:href="#train" x="306.831" y="-241.953" transform="rotate(67.116)"/>
    <use xlink:href="#train" x="406.32" y="-200.805" transform="rotate(61.185)"/>
  </g>
  <use xlink:href="#train" x="1344.857" y="24.355" class="route route_available" transform="rotate(31.37)"/>
  <g class="route route_available" transform="rotate(-27.06 982.708 -2980.73)">
    <use xlink:href="#train" x="292.035" y="-114.368" transform="rotate(45.638)"/>
    <use xlink:href="#train" x="306.831" y="-241.953" transform="rotate(67.116)"/>
    <use xlink:href="#train" x="271.458" y="-367.767" transform="rotate(89.079)"/>
    <use xlink:href="#train" x="188.115" y="-473.544" transform="rotate(111.675)"/>
  </g>
  <g class="route route_available" transform="rotate(-81.843 1338.242 -222.452)">
    <use xlink:href="#train" x="299.567" y="-69.188" transform="rotate(38.377)"/>
    <use xlink:href="#train" x="306.831" y="-241.953" transform="rotate(67.116)"/>
    <use xlink:href="#train" x="151.595" y="-435.256" transform="rotate(107.028)"/>
    <use xlink:href="#train" x="24.122" y="-490.849" transform="rotate(133.09)"/>
  </g>
  <g class="route route_available" transform="rotate(-16.792 3542.456 -1845.774)">
    <use xlink:href="#train" x="280.179" y="102.856" transform="rotate(12.027)"/>
    <use xlink:href="#train" x="306.831" y="-241.953" transform="rotate(67.116)"/>
  </g>
  <g class="route route_available" transform="rotate(-111.583 608.206 674.166)">
    <use xlink:href="#train" x="247.766" y="-216.558" transform="rotate(62.467)"/>
    <use xlink:href="#train" x="306.831" y="-241.953" transform="rotate(67.116)"/>
    <use xlink:href="#train" x="332.885" y="-313.128" transform="rotate(77.979)"/>
  </g>
  <g class="route route_available" transform="rotate(-143.942 512.929 205.937)">
    <use xlink:href="#train" x="230.241" y="-241.715" transform="rotate(67.116)"/>
    <use xlink:href="#train" x="-209.494" y="-305.235" transform="rotate(156.228)"/>
    <use xlink:href="#train" x="-279.059" y="-162.752" transform="rotate(-166.257)"/>
  </g>
  <g class="route route_available" transform="rotate(-128.987 532.858 339.843)">
    <use xlink:href="#train" x="230.241" y="-241.715" transform="rotate(67.116)"/>
    <use xlink:href="#train" x="306.831" y="-241.953" transform="rotate(67.116)"/>
  </g>
  <g class="route route_available" transform="rotate(-107.323 649.98 -83.416)">
    <use xlink:href="#train" x="250.661" y="-211.332" transform="rotate(61.703)"/>
    <use xlink:href="#train" x="306.831" y="-241.953" transform="rotate(67.116)"/>
    <use xlink:href="#train" x="322.161" y="-321.278" transform="rotate(79.94)"/>
  </g>
  <g class="route route_available" transform="rotate(-108.165 774.511 286.081)">
    <use xlink:href="#train" x="230.241" y="-241.715" transform="rotate(67.116)"/>
    <use xlink:href="#train" x="306.831" y="-241.953" transform="rotate(67.116)"/>
  </g>
  <g class="route route_available" transform="rotate(-67.909 907.157 -250.128)">
    <use xlink:href="#train" x="285.101" y="-121.697" transform="rotate(47.766)"/>
    <use xlink:href="#train" x="326.757" y="-200.135" transform="rotate(60.996)"/>
    <use xlink:href="#train" x="381.943" y="-241.184" transform="rotate(67.116)"/>
    <use xlink:href="#train" x="417.936" y="-306.163" transform="rotate(75.654)"/>
  </g>
  <g class="route route_available" transform="rotate(-122.887 1022.316 -95.496)">
    <use xlink:href="#train" x="224.276" y="-248.456" transform="rotate(68.584)"/>
    <use xlink:href="#train" x="-252.092" y="-322.014" transform="rotate(159.048)"/>
    <use xlink:href="#train" x="-176.408" y="-322.682" transform="rotate(159.048)"/>
  </g>
  <g class="route route_available" transform="rotate(-.217 210930.07 -326124.22)">
    <use xlink:href="#train" x="230.241" y="-241.715" transform="rotate(67.116)"/>
    <use xlink:href="#train" x="306.831" y="-241.953" transform="rotate(67.116)"/>
    <use xlink:href="#train" x="381.943" y="-241.184" transform="rotate(67.116)"/>
  </g>
  <g class="route route_available" transform="rotate(-65.435 1093.645 698.71)">
    <use xlink:href="#train" x="230.241" y="-241.715" transform="rotate(67.116)"/>
    <use xlink:href="#train" x="306.831" y="-241.953" transform="rotate(67.116)"/>
  </g>
  <g class="route route_available" transform="rotate(-151.85 408.266 334.358)">
    <use xlink:href="#train" x="230.241" y="-241.715" transform="rotate(67.116)"/>
    <use xlink:href="#train" x="306.831" y="-241.953" transform="rotate(67.116)"/>
  </g>
  <g class="route route_available" transform="rotate(-151.85 422.365 332.89)">
    <use xlink:href="#train" x="230.241" y="-241.715" transform="rotate(67.116)"/>
    <use xlink:href="#train" x="306.831" y="-241.953" transform="rotate(67.116)"/>
  </g>
  <g class="route route_available" transform="rotate(-66.578 597.42 144.298)">
    <use xlink:href="#train" x="230.241" y="-241.715" transform="rotate(67.116)"/>
    <use xlink:href="#train" x="306.831" y="-241.953" transform="rotate(67.116)"/>
  </g>
  <g class="route route_available" transform="rotate(-123.04 627.284 128.462)">
    <use xlink:href="#train" x="230.241" y="-241.715" transform="rotate(67.116)"/>
    <use xlink:href="#train" x="306.831" y="-241.953" transform="rotate(67.116)"/>
    <use xlink:href="#train" x="381.943" y="-241.184" transform="rotate(67.116)"/>
  </g>
  <g class="route route_available" transform="rotate(-123.04 643.17 129.91)">
    <use xlink:href="#train" x="230.241" y="-241.715" transform="rotate(67.116)"/>
    <use xlink:href="#train" x="306.831" y="-241.953" transform="rotate(67.116)"/>
    <use xlink:href="#train" x="381.943" y="-241.184" transform="rotate(67.116)"/>
  </g>
  <g class="route route_available" transform="rotate(-40.474 1258.757 128.412)">
    <use xlink:href="#train" x="52.758" y="-369.201" transform="rotate(100.424)"/>
    <use xlink:href="#train" x="306.831" y="-241.953" transform="rotate(67.116)"/>
    <use xlink:href="#train" x="447.095" y="-36.779" transform="rotate(39.424)"/>
  </g>
  <g class="route route_available" transform="rotate(-11.435 3497.13 -527.465)">
    <use xlink:href="#train" x="52.758" y="-369.201" transform="rotate(100.424)"/>
    <use xlink:href="#train" x="306.831" y="-241.953" transform="rotate(67.116)"/>
    <use xlink:href="#train" x="450.588" y="-36.233" transform="rotate(39.424)"/>
    <use xlink:href="#train" x="457.284" y="-278.191" transform="rotate(66.97)"/>
  </g>
  <g class="route route_available" transform="rotate(-63.88 728.147 -310.494)">
    <use xlink:href="#train" x="90.778" y="305.602" transform="rotate(-17.978)"/>
    <use xlink:href="#train" x="299.717" y="190.362" transform="rotate(9.931)"/>
    <use xlink:href="#train" x="421.812" y="-116.411" transform="rotate(52.243)"/>
    <use xlink:href="#train" x="417.936" y="-306.163" transform="rotate(75.654)"/>
  </g>
  <g class="route route_available" transform="rotate(-152.828 790.053 398.161)">
    <use xlink:href="#train" x="230.241" y="-241.715" transform="rotate(67.116)"/>
    <use xlink:href="#train" x="306.831" y="-241.953" transform="rotate(67.116)"/>
  </g>
  <g class="route route_available" transform="rotate(-80.884 1054.247 113.285)">
    <use xlink:href="#train" x="230.241" y="-241.715" transform="rotate(67.116)"/>
    <use xlink:href="#train" x="47.51" y="-392.427" transform="rotate(114.129)"/>
  </g>
  <g class="route route_available" transform="rotate(-64.331 1160.698 -479.22)">
    <use xlink:href="#train" x="285.959" y="-32.445" transform="rotate(38.248)"/>
    <use xlink:href="#train" x="211.445" y="14.779" transform="rotate(28.895)"/>
    <use xlink:href="#train" x="126.219" y="57.999" transform="rotate(17.147)"/>
    <use xlink:href="#train" x="358.744" y="-68.449" transform="rotate(43.835)"/>
    <use xlink:href="#train" x="395.482" y="-206.634" transform="rotate(62.89)"/>
    <use xlink:href="#train" x="455.213" y="-241.193" transform="rotate(67.116)"/>
  </g>
  <g class="route route_available" transform="rotate(-39.5 1650.039 -873.988)">
    <use xlink:href="#train" x="230.241" y="-241.715" transform="rotate(67.116)"/>
    <use xlink:href="#train" x="306.831" y="-241.953" transform="rotate(67.116)"/>
    <use xlink:href="#train" x="381.943" y="-241.184" transform="rotate(67.116)"/>
    <use xlink:href="#train" x="455.213" y="-241.193" transform="rotate(67.116)"/>
  </g>
  <g class="route route_available" transform="rotate(-67.432 790.053 -704.627)">
    <use xlink:href="#train" x="230.241" y="-241.715" transform="rotate(67.116)"/>
    <use xlink:href="#train" x="152.877" y="-243.561" transform="rotate(67.116)"/>
    <use xlink:href="#train" x="185.625" y="-98.077" transform="rotate(28.074)"/>
    <use xlink:href="#train" x="-152.917" y="-175.819" transform="rotate(120.854)"/>
    <use xlink:href="#train" x="306.831" y="-241.953" transform="rotate(67.116)"/>
    <use xlink:href="#train" x="381.943" y="-241.184" transform="rotate(67.116)"/>
    <use xlink:href="#train" x="455.213" y="-241.193" transform="rotate(67.116)"/>
    <use xlink:href="#train" x="406.03" y="-424.836" transform="rotate(89.448)"/>
  </g>
  <g class="route route_available" transform="rotate(16.734 314.142 5984.623)">
    <use xlink:href="#train" x="292.035" y="-114.368" transform="rotate(45.638)"/>
    <use xlink:href="#train" x="306.831" y="-241.953" transform="rotate(67.116)"/>
    <use xlink:href="#train" x="271.458" y="-367.767" transform="rotate(89.079)"/>
    <use xlink:href="#train" x="150.88" y="-485.972" transform="rotate(115.863)"/>
  </g>
  <g class="route route_available" transform="rotate(-63.425 1139.85 -510.674)">
    <use xlink:href="#train" x="-19.158" y="-397.015" transform="rotate(109.959)"/>
    <use xlink:href="#train" x="215.473" y="-335.637" transform="rotate(84.82)"/>
    <use xlink:href="#train" x="404.352" y="-186.206" transform="rotate(60.187)"/>
    <use xlink:href="#train" x="455.213" y="-241.193" transform="rotate(67.116)"/>
  </g>
  <g class="route route_available" transform="rotate(-30.106 1476.428 -2125.856)">
    <use xlink:href="#train" x="230.241" y="-241.715" transform="rotate(67.116)"/>
    <use xlink:href="#train" x="-13.055" y="-398.123" transform="rotate(123.256)"/>
  </g>
  <g class="route route_available" transform="rotate(-85.583 1285.684 -276.038)">
    <use xlink:href="#train" x="-358.959" y="-345.527" transform="rotate(155.734)"/>
    <use xlink:href="#train" x="7.217" y="-447.449" transform="rotate(115.315)"/>
    <use xlink:href="#train" x="271.458" y="-367.767" transform="rotate(89.079)"/>
    <use xlink:href="#train" x="452.765" y="-219.145" transform="rotate(68.145)"/>
  </g>
  <g class="route route_available" transform="rotate(-139.06 1053.36 268.544)">
    <use xlink:href="#train" x="230.241" y="-241.715" transform="rotate(67.116)"/>
    <use xlink:href="#train" x="306.831" y="-241.953" transform="rotate(67.116)"/>
    <use xlink:href="#train" x="381.943" y="-241.184" transform="rotate(67.116)"/>
    <use xlink:href="#train" x="455.213" y="-241.193" transform="rotate(67.116)"/>
  </g>
  <g class="route route_available" transform="rotate(-68.005 864.655 -714.033)">
    <use xlink:href="#train" x="230.241" y="-241.715" transform="rotate(67.116)"/>
    <use xlink:href="#train" x="306.831" y="-241.953" transform="rotate(67.116)"/>
    <use xlink:href="#train" x="381.943" y="-241.184" transform="rotate(67.116)"/>
    <use xlink:href="#train" x="455.213" y="-241.193" transform="rotate(67.116)"/>
  </g>
  <g class="route route_available" transform="rotate(-147.633 1177.74 295.63)">
    <use xlink:href="#train" x="230.241" y="-241.715" transform="rotate(67.116)"/>
    <use xlink:href="#train" x="306.831" y="-241.953" transform="rotate(67.116)"/>
    <use xlink:href="#train" x="-245.647" y="-405.966" transform="rotate(157.773)"/>
    <use xlink:href="#train" x="-172.377" y="-405.975" transform="rotate(157.773)"/>
  </g>
  <g class="route route_available" transform="rotate(-153.895 1243.521 335.242)">
    <use xlink:href="#train" x="230.241" y="-241.715" transform="rotate(67.116)"/>
    <use xlink:href="#train" x="306.831" y="-241.953" transform="rotate(67.116)"/>
  </g>
  <g class="route route_available" transform="rotate(-64.91 1763.763 -513.9)">
    <use xlink:href="#train" x="-356.144" y="-348.011" transform="rotate(155.337)"/>
    <use xlink:href="#train" x="-237.589" y="-381.472" transform="rotate(148.23)"/>
    <use xlink:href="#train" x="37.152" y="-413.199" transform="rotate(119.958)"/>
    <use xlink:href="#train" x="260.815" y="-337.651" transform="rotate(97.641)"/>
  </g>
  <g class="route route_available" transform="rotate(-57.2 1807.057 -875.398)">
    <use xlink:href="#train" x="230.241" y="-241.715" transform="rotate(67.116)"/>
    <use xlink:href="#train" x="306.831" y="-241.953" transform="rotate(67.116)"/>
  </g>
  <g class="route route_available" transform="rotate(-118.084 1325.499 190.267)">
    <use xlink:href="#train" x="271.41" y="-257.631" transform="rotate(64.47)"/>
    <use xlink:href="#train" x="169.7" y="-305.275" transform="rotate(64.47)"/>
    <use xlink:href="#train" x="431.509" y="-7.886" transform="rotate(28.588)"/>
    <use xlink:href="#train" x="-314.614" y="-260.456" transform="rotate(156.228)"/>
  </g>
  <g class="route route_available" transform="rotate(-130.52 1195.112 422.922)">
    <use xlink:href="#train" x="230.241" y="-241.715" transform="rotate(67.116)"/>
    <use xlink:href="#train" x="306.831" y="-241.953" transform="rotate(67.116)"/>
  </g>
  <g class="route route_available" transform="rotate(-30.502 2885.926 -1833.02)">
    <use xlink:href="#train" x="230.241" y="-241.715" transform="rotate(67.116)"/>
    <use xlink:href="#train" x="306.831" y="-241.953" transform="rotate(67.116)"/>
  </g>
  <g class="route route_available" transform="rotate(-67.022 1703.217 -34.397)">
    <use xlink:href="#train" x="183.572" y="-241.637" transform="rotate(67.116)"/>
    <use xlink:href="#train" x="284.91" y="-241.917" transform="rotate(67.116)"/>
    <use xlink:href="#train" x="85.12" y="-242.144" transform="rotate(67.116)"/>
    <use xlink:href="#train" x="-13.875" y="-241.981" transform="rotate(67.116)"/>
    <use xlink:href="#train" x="-173.762" y="-224.734" transform="rotate(85.555)"/>
    <use xlink:href="#train" x="381.943" y="-241.184" transform="rotate(67.116)"/>
  </g>
  <g class="route route_available" transform="rotate(-43.11 2251.055 -706.225)">
    <use xlink:href="#train" x="296.318" y="-96.794" transform="rotate(42.66)"/>
    <use xlink:href="#train" x="306.831" y="-241.953" transform="rotate(67.116)"/>
  </g>
  <g class="route route_available" transform="rotate(-45.79 1932.685 -310.134)">
    <use xlink:href="#train" x="-35.556" y="-389.234" transform="rotate(113.372)"/>
    <use xlink:href="#train" x="39.548" y="-388.882" transform="rotate(113.372)"/>
    <use xlink:href="#train" x="359.841" y="-189.776" transform="rotate(67.116)"/>
    <use xlink:href="#train" x="472.01" y="47.632" transform="rotate(37.514)"/>
  </g>
  <g class="route route_available" transform="rotate(-105.825 854.924 420.673)">
    <use xlink:href="#train" x="252.651" y="-283.865" transform="rotate(69.024)"/>
    <use xlink:href="#train" x="329.241" y="-284.104" transform="rotate(69.024)"/>
    <use xlink:href="#train" x="-245.647" y="-405.966" transform="rotate(157.773)"/>
    <use xlink:href="#train" x="-172.377" y="-405.975" transform="rotate(157.773)"/>
  </g>
  <g class="route route_available" transform="rotate(-46.467 1724.45 -112.793)">
    <use xlink:href="#train" x="252.651" y="-283.865" transform="rotate(69.024)"/>
    <use xlink:href="#train" x="193.129" y="-393.094" transform="rotate(92.852)"/>
    <use xlink:href="#train" x="289.596" y="172.907" transform="rotate(18.617)"/>
    <use xlink:href="#train" x="299.766" y="268.169" transform="rotate(2.572)"/>
  </g>
  <g class="route route_available" transform="rotate(80.72 125.32 1154.898)">
    <use xlink:href="#train" x="-351.382" y="-129.39" transform="rotate(-168.367)"/>
    <use xlink:href="#train" x="-405.603" y="172.614" transform="rotate(-120.717)"/>
    <use xlink:href="#train" x="-344.509" y="349.155" transform="rotate(-91.743)"/>
  </g>
  <g class="route route_available" transform="rotate(175.86 825.331 607.138)">
    <use xlink:href="#train" x="-327.059" y="195.721" transform="rotate(-111.75)"/>
    <use xlink:href="#train" x="-286.021" y="-333.136" transform="rotate(156.228)"/>
  </g>
  <g class="route route_available" transform="rotate(-172.458 935.802 562.061)">
    <use xlink:href="#train" x="232.437" y="-319.441" transform="rotate(87.145)"/>
    <use xlink:href="#train" x="-286.021" y="-333.136" transform="rotate(156.228)"/>
  </g>
  <g class="route route_available" transform="rotate(-37.43 1054.004 -1192.145)">
    <use xlink:href="#train" x="230.241" y="-241.715" transform="rotate(67.116)"/>
    <use xlink:href="#train" x="35.977" y="-394.923" transform="rotate(116.013)"/>
  </g>
  <g class="route route_available" transform="rotate(17.315 -2606.963 875.584)">
    <use xlink:href="#train" x="230.241" y="-241.715" transform="rotate(67.116)"/>
    <use xlink:href="#train" x="306.831" y="-241.953" transform="rotate(67.116)"/>
  </g>
  <g class="route route_available" transform="rotate(-108.459 737.292 598.704)">
    <use xlink:href="#train" x="254.309" y="-199.553" transform="rotate(59.683)"/>
    <use xlink:href="#train" x="306.831" y="-241.953" transform="rotate(67.116)"/>
    <use xlink:href="#train" x="327.684" y="-314.899" transform="rotate(78.727)"/>
    <use xlink:href="#train" x="358.712" y="-367.75" transform="rotate(86.894)"/>
  </g>
  <g class="route route_available" transform="rotate(-111.583 587.628 670.745)">
    <use xlink:href="#train" x="247.766" y="-216.558" transform="rotate(62.467)"/>
    <use xlink:href="#train" x="306.831" y="-241.953" transform="rotate(67.116)"/>
    <use xlink:href="#train" x="332.302" y="-309.695" transform="rotate(77.979)"/>
  </g>
</svg>