<?xml version="1.0" encoding="iso-8859-1"?>
<!-- Generator: Adobe Illustrator 18.0.0, SVG Export Plug-In . SVG Version: 6.00 Build 0)  -->
<!DOCTYPE svg PUBLIC "-//W3C//DTD SVG 1.1//EN" "http://www.w3.org/Graphics/SVG/1.1/DTD/svg11.dtd">
<svg version="1.1" id="Capa_1" xmlns="http://www.w3.org/2000/svg" xmlns:xlink="http://www.w3.org/1999/xlink" x="0px" y="0px"
	 viewBox="0 0 449.441 449.441" style="enable-background:new 0 0 449.441 449.441;" xml:space="preserve">
<path d="M449.432,92.721c-0.154-1.233-0.907-2.336-2-2.967l-111.145-64.17c-1.237-0.714-2.761-0.715-3.998-0.001L2.002,216.039
	C0.764,216.753,0,219.504,0,219.504v136.729c0,1.429,0.763,2.75,2,3.464l33.489,19.334l-6.215,3.553
	c-6.022-7.621-14.582-10.777-20.819-7.176c-3.672,2.119-5.89,6.298-6.086,11.464c-0.173,4.561,1.196,9.609,3.855,14.214
	c2.658,4.605,6.346,8.315,10.382,10.446c2.445,1.29,4.934,1.938,7.282,1.938c2.044,0,3.98-0.491,5.688-1.478
	c3.671-2.119,5.89-6.297,6.085-11.463c0.135-3.545-0.672-7.382-2.282-11.078l10.13-5.79l69.624,40.195
	c0.619,0.357,1.31,0.536,2,0.536c0.689,0,1.38-0.179,1.998-0.535l35.624-20.54c0.118,7.732,3.157,13.975,8.635,17.136
	c2.452,1.416,5.166,2.09,8,2.09c9.178-0.001,19.601-7.065,26.394-18.822c2.77-4.796,4.589-9.853,5.411-14.71
	c1.39,2.207,3.213,4.014,5.446,5.302c2.417,1.396,5.116,2.091,7.979,2.091c3.373,0,6.975-0.965,10.612-2.886
	c6.125-3.233,11.737-8.898,15.802-15.948c1.874-3.244,3.302-6.607,4.294-9.947l95.601-55.194c0.924,0.912,1.944,1.718,3.082,2.375
	c2.418,1.396,5.118,2.092,7.983,2.092c3.37,0,6.97-0.963,10.604-2.881c6.122-3.23,11.736-8.894,15.807-15.944
	c2.765-4.786,4.582-9.852,5.404-14.722c1.391,2.218,3.22,4.028,5.453,5.315c2.417,1.396,5.116,2.091,7.98,2.091
	c3.373,0,6.975-0.964,10.612-2.885c6.124-3.232,11.739-8.897,15.812-15.95c5.39-9.344,7.182-19.756,4.975-27.674l18.79-10.834
	c1.238-0.714,2.002-2.035,2.002-3.465C449.432,229.946,449.452,92.884,449.432,92.721z M25.577,405.065
	c-1.238,0.715-3.147,0.495-5.235-0.608c-2.682-1.415-5.302-4.103-7.189-7.371c-1.887-3.269-2.903-6.881-2.789-9.911
	c0.09-2.359,0.852-4.123,2.092-4.839c0.484-0.279,1.065-0.416,1.714-0.416c3.055,0,7.613,3.03,10.711,8.396
	c1.887,3.269,2.903,6.881,2.788,9.911C27.579,402.586,26.816,404.35,25.577,405.065z M441.432,110.179l-40.941,23.606v-10.038
	l40.941-23.606V110.179z M342.921,284.436V176.213l49.569-28.581v108.223L342.921,284.436z M227.78,350.824V242.602l49.57-28.582
	v108.223L227.78,350.824z M170.2,384.024V275.802l49.58-28.587v108.223L170.2,384.024z M119.134,413.469V305.246l43.066-24.832
	v108.223L119.134,413.469z M8,236.467v-10.035l103.134,59.542v10.034L8,236.467z M219.78,227.943v10.037l-49.58,28.587V256.53
	L219.78,227.943z M227.78,223.33l49.57-28.582v10.037l-49.57,28.582V223.33z M285.351,190.136l49.57-28.582v10.038l-49.57,28.582
	V190.136z M338.868,150.044L235.727,90.499l49.277-28.415l103.143,59.547L338.868,150.044z M330.863,154.66l-49.567,28.579
	l-103.139-59.543l49.565-28.581L330.863,154.66z M273.291,187.855l-50,28.829l-103.136-59.543l49.996-28.83L273.291,187.855z
	 M215.286,221.3l-49.445,28.509L62.708,190.268l49.443-28.511L215.286,221.3z M162.2,271.18l-43.066,24.832v-10.037l43.066-24.832
	V271.18z M111.134,305.245v108.22l-16.237-9.374v-108.22L111.134,305.245z M285.351,209.407l49.57-28.582v108.223l-49.57,28.582
	V209.407z M342.921,166.979v-10.037l49.569-28.581v10.038L342.921,166.979z M334.286,33.666l103.142,59.55l-41.277,23.8
	L293.008,57.469L334.286,33.666z M54.703,194.884l103.133,59.541l-42.702,24.621l-103.131-59.54L54.703,194.884z M8,245.704
	l14.244,8.223v108.22L8,353.924V245.704z M57.85,370.857c-1.096-1.916-3.54-2.584-5.458-1.487l-8.862,5.065l-13.285-7.67v-108.22
	l56.652,32.706v108.22L51.55,379.066l4.812-2.75C58.28,375.22,58.946,372.775,57.85,370.857z M188.856,399.719
	c-6.424,11.121-17.171,17.44-23.467,13.806c-3.82-2.205-5.421-8.006-4.258-15.037l32.312-18.631
	C194.413,385.498,192.78,392.926,188.856,399.719z M234.105,373.571c-3.323,5.763-7.801,10.334-12.609,12.873
	c-2.435,1.287-7.082,3.12-10.855,0.941c-3.806-2.198-5.412-7.977-4.274-14.98l32.345-18.65
	C239.661,359.387,238.021,366.795,234.105,373.571z M245.936,349.591l89.454-51.578c0.077,2.755,0.538,5.309,1.34,7.604
	l-89.788,51.838C246.977,354.663,246.649,352.008,245.936,349.591z M371.477,294.069c-3.327,5.763-7.807,10.334-12.612,12.87
	c-2.435,1.284-7.082,3.112-10.854,0.937c-3.732-2.155-5.356-7.804-4.32-14.65l32.421-18.694
	C376.958,280.142,375.309,287.436,371.477,294.069z M416.736,267.92c-3.328,5.764-7.809,10.336-12.618,12.875
	c-2.436,1.286-7.087,3.119-10.859,0.938c-3.718-2.143-5.343-7.771-4.324-14.595l32.441-18.705
	C422.203,254.032,420.552,261.306,416.736,267.92z M400.49,251.242V143.019l40.941-23.606v108.223L400.49,251.242z"/>
<g>
</g>
<g>
</g>
<g>
</g>
<g>
</g>
<g>
</g>
<g>
</g>
<g>
</g>
<g>
</g>
<g>
</g>
<g>
</g>
<g>
</g>
<g>
</g>
<g>
</g>
<g>
</g>
<g>
</g>
</svg>
