<svg aria-hidden="true" style="position: absolute; width: 0; height: 0; overflow: hidden; " version="1.1" xmlns="http://www.w3.org/2000/svg" xmlns:xlink="http://www.w3.org/1999/xlink">
<defs>
<symbol id="train" viewBox="0 0 68 23">
<title>train</title>
<g id="train" >
    <path d="m 68.061207,230.57693 c -0.143434,0.0171 -0.286869,0.0598 -0.318744,0.0898 -0.02659,0.03 -0.148753,0.0598 -0.265631,0.0641 -0.329373,0.0128 -0.43031,0.047 -0.499371,0.16671 -0.05311,0.0941 -0.04781,0.12823 0.02659,0.19235 0.04781,0.047 0.143435,0.0812 0.201874,0.0812 0.06372,0 0.169997,0.0299 0.233748,0.0684 0.106255,0.0598 0.116878,0.10262 0.116878,0.44454 0,0.20946 -0.02122,0.42746 -0.05311,0.48729 -0.04781,0.10263 -0.07438,0.11115 -0.409058,0.11543 -0.494067,0.004 -0.828752,0.047 -0.855317,0.1154 -0.01591,0.047 0.100938,0.0514 0.653437,0.0256 l 0.669376,-0.03 -0.01591,1.27809 c -0.01591,1.19258 0.05311,10.9513 0.07968,11.06244 0.0054,0.0342 -0.350626,0.0514 -1.290937,0.0598 -0.759691,0.004 -1.317501,0.0256 -1.349376,0.0514 -0.03189,0.0256 -0.276246,0.0427 -0.552499,0.0427 h -0.494061 l -0.132812,-0.24363 c -0.122188,-0.218 -0.138129,-0.23511 -0.217814,-0.171 -0.1275,0.10263 -0.185939,0.83355 -0.116877,1.47899 0.02659,0.29068 0.07969,0.56852 0.106255,0.61126 0.06906,0.10262 0.17531,0.0769 0.196562,-0.0427 0.01061,-0.0513 0.0372,-0.0941 0.06372,-0.0941 0.02659,0 0.06906,-0.0641 0.09562,-0.14106 l 0.0425,-0.13679 0.701252,-0.004 0.701252,-0.004 -0.159382,0.11542 c -0.164688,0.11968 -0.154058,0.11968 -0.844687,0.0769 -0.159375,-0.0128 -0.185933,0.004 -0.233748,0.11113 -0.0372,0.0941 -0.03189,0.14962 0.0372,0.23937 0.06372,0.0898 0.085,0.23083 0.085,0.54714 0,0.57706 0.05841,1.08145 0.122189,1.06436 0.03189,-0.009 0.04781,-0.20518 0.0425,-0.47448 -0.01061,-0.30348 0.01061,-0.47873 0.05311,-0.52149 0.04781,-0.047 0.0425,-0.10262 -0.0319,-0.2522 -0.07969,-0.17524 -0.07969,-0.20517 -0.01061,-0.29494 0.111567,-0.13678 0.63219,-0.19662 0.775624,-0.0941 0.05311,0.0384 0.169999,0.0685 0.265624,0.0685 0.143441,0 0.19125,-0.03 0.318751,-0.2009 0.286875,-0.38043 0.276253,-0.37615 0.924378,-0.36333 0.49406,0.0128 0.568439,0.0256 0.568439,0.0854 -0.0054,0.0897 -0.164694,0.46165 -0.26563,0.60699 -0.0372,0.0598 -0.100937,0.1838 -0.138123,0.27784 -0.06372,0.17097 -0.07968,0.17953 -0.23906,0.12824 -0.06372,-0.0214 -0.106254,0.009 -0.148753,0.11114 -0.07968,0.18807 -0.07438,0.20944 0.06372,0.20944 0.175316,0 0.223126,0.0427 0.329374,0.27357 0.1275,0.26502 0.499378,0.63263 0.765002,0.75232 l 0.201873,0.0941 -0.02659,0.29495 c -0.02122,0.24364 -0.01061,0.2992 0.06372,0.32058 0.159377,0.0514 0.228438,-0.0514 0.201881,-0.30349 l -0.02659,-0.2351 0.154057,0.047 c 0.08501,0.0256 0.286876,0.0641 0.446251,0.0898 0.217814,0.03 0.345315,0.0812 0.510001,0.20517 0.169999,0.12396 0.24969,0.15816 0.355938,0.14106 0.201874,-0.03 0.286876,-0.12824 0.207192,-0.23082 -0.06907,-0.0897 -0.07969,-0.84635 -0.01591,-1.4448 0.02659,-0.28639 0.01591,-0.38898 -0.05311,-0.51292 -0.185932,-0.34198 -0.180621,-0.37617 0.100943,-0.49158 0.143436,-0.0556 0.28687,-0.13679 0.324063,-0.17098 0.0425,-0.0384 0.100937,-0.0685 0.143434,-0.0685 0.0372,0 0.09031,-0.0342 0.116878,-0.0727 0.04781,-0.0641 0.233748,-0.0727 1.901875,-0.0898 l 1.854059,-0.0171 0.148753,0.23938 0.143434,0.24364 -0.111565,0.11969 c -0.143435,0.15389 -0.100937,0.27784 0.1275,0.35052 0.09562,0.03 0.207192,0.0941 0.249689,0.13677 0.07438,0.0684 0.127502,0.077 0.393126,0.0514 0.26563,-0.03 0.324062,-0.0514 0.398442,-0.15388 0.100936,-0.14533 0.302809,-0.22226 0.54187,-0.20089 l 0.180627,0.0128 0.0425,0.29922 c 0.03189,0.19662 0.02122,0.41889 -0.02122,0.64972 -0.085,0.46165 -0.0425,0.82925 0.122182,1.03016 0.07438,0.0855 0.143441,0.19235 0.164687,0.2351 0.05311,0.11113 0.467503,0.54286 0.520631,0.54286 0.02659,0 0.07438,0.047 0.100937,0.10691 0.0372,0.0769 0.09031,0.1069 0.185938,0.1069 0.07968,0 0.132812,0.0256 0.132812,0.0598 0,0.0343 0.0425,0.0727 0.09562,0.0854 0.04781,0.0171 0.212496,0.17526 0.355937,0.3548 0.148746,0.18379 0.334685,0.39325 0.419687,0.47446 0.08499,0.077 0.143434,0.14534 0.132812,0.15816 -0.01591,0.009 -1.540627,0 -3.394686,-0.0214 -1.854068,-0.0214 -5.280629,-0.0513 -7.607503,-0.0684 l -4.239373,-0.0299 v 0.76942 0.7694 l 4.558123,0.0384 c 2.502184,0.0214 14.088749,0.0427 25.749683,0.047 11.66094,0.009 21.65375,0.0128 22.20624,0.0171 1.81156,0.0128 13.84438,-0.047 14.67843,-0.0727 l 0.80751,-0.0257 v -0.72667 -0.72667 l -8.19188,0.0299 -8.19718,0.0343 0.16469,-0.14962 c 0.085,-0.0812 0.2975,-0.32485 0.46749,-0.53859 0.27094,-0.34196 0.32939,-0.39326 0.45689,-0.39326 0.085,0 0.15937,0.0256 0.1753,0.0514 0.0159,0.0427 0.0372,0.0427 0.10626,0 0.0585,-0.0427 0.11156,-0.047 0.18593,-0.0128 0.13282,0.0557 0.17,0.0214 0.17,-0.16244 0,-0.12823 0.0319,-0.17096 0.18062,-0.25219 0.10094,-0.0556 0.19126,-0.14532 0.20189,-0.19235 0.0106,-0.0598 0.0584,-0.0984 0.13281,-0.10691 0.22312,-0.0257 0.23905,-0.0898 0.24437,-1.02589 v -0.89765 l 0.1275,0.004 c 0.0691,0 0.16468,-0.03 0.21781,-0.0684 0.0478,-0.0343 0.13813,-0.0727 0.19656,-0.0812 0.0797,-0.009 0.11156,-0.0556 0.13282,-0.18379 0.0159,-0.0984 0.0957,-0.24366 0.18062,-0.33341 l 0.14875,-0.15816 h 1.81687 c 1.34407,0 1.83282,0.0128 1.88064,0.0514 0.0425,0.0342 0.0637,0.21371 0.0584,0.54713 -0.005,0.82499 -0.085,1.98766 -0.14344,2.07741 -0.0638,0.0941 0.0319,0.23083 0.15937,0.23083 0.16469,0 0.52063,-0.17526 0.52063,-0.25647 0,-0.0598 0.0478,-0.0898 0.20187,-0.1069 0.71187,-0.0983 1.32814,-0.50867 1.53,-1.02162 0.0797,-0.20945 0.0797,-0.24792 0,-0.58133 -0.085,-0.32487 -0.23906,-0.59844 -0.34531,-0.59844 -0.0585,0 -0.44624,-0.42744 -0.41437,-0.45736 0.0213,-0.0128 0.15406,-0.0342 0.2975,-0.047 0.23906,-0.0171 0.28155,-0.004 0.51531,0.13678 0.26031,0.16244 0.66938,0.28211 0.95093,0.28211 0.10094,0 0.20719,0.0341 0.26563,0.0854 0.0956,0.0812 0.0903,0.0941 -0.0106,0.37616 -0.0638,0.15817 -0.19656,0.44883 -0.3028,0.64973 -0.22845,0.436 -0.23908,0.56423 -0.0585,0.69246 0.10094,0.0685 0.11687,0.10263 0.0744,0.14962 -0.0531,0.047 0.0584,0.0557 0.60562,0.0557 0.49406,0 0.67469,-0.0129 0.7225,-0.0598 0.0372,-0.0343 0.22843,-0.0641 0.51531,-0.0812 0.30282,-0.0128 0.47282,-0.0427 0.50469,-0.0769 0.0638,-0.0812 0.0585,-0.0898 -0.0478,-0.19664 -0.13282,-0.13677 -0.62157,-0.18808 -1.50875,-0.15388 -0.42501,0.0128 -0.73314,0.009 -0.73314,-0.0128 0,-0.0213 0.14876,-0.27784 0.3347,-0.57279 0.25499,-0.41462 0.35593,-0.53858 0.44624,-0.54714 0.10094,-0.0128 0.49407,-0.31203 0.5525,-0.41889 0.0691,-0.13252 1.0147,-0.31631 1.20594,-0.2351 0.15407,0.0684 0.595,0.0598 0.69594,-0.0128 0.14344,-0.10263 0.29218,-0.0941 0.44094,0.03 0.14343,0.1154 0.39312,0.15389 0.60031,0.0898 0.10093,-0.0343 0.24969,-0.26502 0.34531,-0.53859 0.0957,-0.29068 0.0478,-0.90193 -0.0903,-1.14558 -0.15936,-0.27357 -0.39312,-0.45737 -0.62687,-0.49584 -0.19656,-0.03 -0.23905,-0.0171 -0.73844,0.20518 -0.13812,0.0598 -0.32405,0.0727 -1.09968,0.0769 h -0.935 l -0.0372,-0.70958 c -0.0372,-0.6882 -0.0159,-0.83353 0.11688,-0.76941 0.0266,0.0128 0.0638,0.0854 0.0797,0.16671 0.0585,0.30776 0.31343,0.89337 0.36656,0.85063 0.0319,-0.0257 0.005,-0.17954 -0.085,-0.44883 -0.0744,-0.22228 -0.13811,-0.42745 -0.13811,-0.44884 0,-0.0769 0.22312,-0.22226 0.34531,-0.22226 0.0637,0 0.16469,-0.0427 0.22844,-0.0983 0.11687,-0.0984 0.11687,-0.11969 0.11687,-1.53456 0,-1.71408 0.0478,-1.59867 -0.61626,-1.55592 l -0.43562,0.03 -0.0372,-0.15817 c -0.0159,-0.0854 -0.0319,-0.76514 -0.0319,-1.5089 0,-1.42342 -0.016,-2.02185 -0.0585,-2.08169 -0.0159,-0.0214 -0.0372,-0.8549 -0.0478,-1.85515 l -0.0212,-1.81667 0.39843,-0.0128 c 0.30813,-0.009 0.41437,-0.03 0.47812,-0.0897 0.0744,-0.0641 0.22313,-0.0855 0.98282,-0.12825 0.96155,-0.0557 1.21125,-0.0898 1.18469,-0.14961 -0.0266,-0.0556 -1.32813,-0.004 -1.96563,0.0812 -0.20718,0.0256 -0.19125,-0.0514 0.0638,-0.45311 0.18594,-0.28639 0.20187,-0.34622 0.15406,-0.45736 -0.0531,-0.12396 -0.0585,-0.12396 -0.59499,-0.16244 -0.62157,-0.0427 -0.69063,-0.0427 -3.03876,-0.009 -1.21125,0.0214 -2.08781,0.009 -2.84219,-0.03 -0.6003,-0.03 -1.2803,-0.0427 -1.51406,-0.0256 -0.23375,0.0128 -0.71187,0.009 -1.06249,-0.009 -0.35062,-0.0171 -1.93906,-0.0256 -3.53282,-0.0128 -1.59374,0.0128 -3.6125,0.004 -4.48905,-0.0171 -0.87657,-0.0214 -3.06532,-0.0514 -4.86094,-0.0641 -8.978126,-0.0641 -9.376562,-0.0685 -9.456252,-0.12398 -0.138124,-0.0983 -0.387813,-0.1069 -1.55125,-0.0684 -0.929689,0.0342 -1.296249,0.03 -2.066562,-0.03 -0.87125,-0.0684 -0.961564,-0.0684 -1.328124,0 -0.499372,0.0898 -0.733127,0.0898 -10.008742,0.0598 -7.304695,-0.0256 -11.958443,-0.0898 -12.054062,-0.16244 -0.03189,-0.0214 -0.03189,-0.0384 -0.01061,-0.0384 0.02659,0 0.01591,-0.03 -0.02122,-0.0641 -0.07438,-0.0727 -0.573751,-0.0812 -1.035943,-0.0171 z m 59.282173,9.51509 c 0.0372,0.0983 -0.005,1.68415 -0.0478,1.71407 -0.0159,0.0171 -0.19125,0.0341 -0.38781,0.0427 -0.34531,0.0171 -0.36125,0.0128 -0.425,-0.0941 -0.0903,-0.16242 -0.0903,-1.59012 0.005,-1.63714 0.0744,-0.0384 0.41438,-0.0854 0.65875,-0.0941 0.11687,-0.004 0.17531,0.0171 0.19656,0.0685 z m -0.16469,1.89786 c 0.18063,0.077 0.19656,0.1197 0.19656,0.53861 0,0.436 -0.0531,0.52575 -0.31875,0.52575 h -0.14874 l -0.0213,-0.52575 c -0.0106,-0.28641 -0.0159,-0.53432 -0.005,-0.5557 0.0319,-0.0427 0.16468,-0.0384 0.2975,0.0171 z m -0.60562,0.21801 c 0.0372,0.10263 0.0584,0.3377 0.0478,0.52577 -0.0106,0.27784 -0.0319,0.34197 -0.10625,0.35479 -0.0797,0.0128 -0.0903,-0.047 -0.10624,-0.51294 -0.0106,-0.29067 -0.0106,-0.53859 0,-0.55997 0.0372,-0.0641 0.10624,0.0171 0.16469,0.19235 z m -50.835299,4.37285 c 0.148754,0.12822 0.106249,0.17952 -0.09562,0.12394 -0.085,-0.0256 -0.148752,-0.0769 -0.159375,-0.13679 -0.02659,-0.12822 0.09562,-0.11967 0.255,0.0128 z m 10.253122,-0.0685 c 0,0.0214 -0.03189,0.0598 -0.07438,0.0854 -0.085,0.0556 -0.169999,-0.009 -0.11156,-0.0812 0.0425,-0.0514 0.185933,-0.0557 0.185933,-0.004 z m 2.252501,0.004 c -0.02659,0.0214 -0.180628,0.0514 -0.339997,0.0598 -0.159382,0.0128 -0.531253,0.0427 -0.82344,0.0727 -0.297499,0.03 -0.626872,0.0384 -0.738439,0.0214 -0.196562,-0.03 -0.196562,-0.0342 -0.106248,-0.1154 0.08501,-0.0727 0.169999,-0.0812 1.078435,-0.0812 0.653436,0 0.966875,0.0128 0.929689,0.0427 z m -19.87406,0.11541 c 0.01591,0.0214 0.0425,0.0984 0.06372,0.17098 0.0425,0.17953 -0.05311,0.18807 -0.286875,0.03 -0.223126,-0.14959 -0.212497,-0.23083 0.01591,-0.23083 0.100937,0 0.196562,0.0128 0.207185,0.03 z m 54.904676,0.17098 c 0.44093,0.25647 0.595,0.41035 0.70124,0.6882 0.13282,0.34624 0.13282,0.436 -0.0106,0.67965 -0.21251,0.3676 -0.66406,0.6369 -1.24312,0.73949 -0.13813,0.0256 -0.29219,0.0641 -0.35063,0.0898 -0.0584,0.0257 -0.11688,0.0342 -0.13281,0.0257 -0.0106,-0.0128 0.0159,-0.14105 0.0691,-0.2864 0.0744,-0.21801 0.0797,-0.28639 0.0266,-0.43172 -0.0584,-0.14962 -0.0531,-0.18808 0.016,-0.24791 0.12749,-0.11543 0.12218,-0.75233 -0.005,-0.81644 -0.0903,-0.0427 -0.0903,-0.0427 0,-0.0855 0.0478,-0.0256 0.0903,-0.0727 0.0903,-0.10262 0,-0.0342 0.0585,-0.0727 0.1275,-0.0855 0.0797,-0.0171 0.14875,-0.0727 0.18062,-0.15387 0.0744,-0.16672 0.26562,-0.17099 0.53126,-0.0128 z m -54.909987,0.29922 c 0.07968,0.0128 0.159376,0.0557 0.17531,0.0983 0.0425,0.11115 0.05311,0.46165 0.01061,0.49585 -0.01591,0.0171 -0.138123,-0.004 -0.265623,-0.0427 -0.122189,-0.0384 -0.281565,-0.0685 -0.345308,-0.0685 -0.06372,0 -0.143441,-0.0384 -0.180627,-0.0854 -0.0372,-0.047 -0.106249,-0.0855 -0.154065,-0.0855 -0.164686,0 -0.212496,-0.29922 -0.07438,-0.51293 0.11156,-0.17953 0.18594,-0.17526 0.451563,0.009 0.127501,0.0941 0.30281,0.17952 0.382501,0.19234 z m 0.887184,0.0727 c 0.06907,0.34196 0.06907,0.38044 -0.01591,0.44455 -0.08501,0.0684 -0.100937,0.0641 -0.223126,-0.0556 -0.06906,-0.0685 -0.154064,-0.22655 -0.185939,-0.3505 -0.06372,-0.218 -0.05842,-0.22228 0.09031,-0.32913 0.085,-0.0598 0.180628,-0.10263 0.207184,-0.0941 0.03189,0.004 0.085,0.17954 0.127501,0.38472 z m 17.961561,-0.12822 c 0,0.19661 0.04781,0.23509 0.244378,0.20516 0.100937,-0.0128 0.11156,-0.0384 0.09031,-0.17952 -0.02659,-0.13679 -0.01061,-0.16671 0.085,-0.19236 0.07438,-0.0171 0.164686,-0.004 0.244377,0.0384 0.06906,0.0384 0.185933,0.0684 0.249683,0.0684 0.06906,0 0.244378,0.047 0.387813,0.10691 0.148752,0.0556 0.318751,0.1069 0.377189,0.1069 0.06372,0 0.1275,0.0299 0.148753,0.0641 0.01591,0.0342 0.09031,0.0641 0.164686,0.0641 0.08499,0 0.132812,-0.0256 0.132812,-0.0641 0,-0.0556 0.164687,-0.0641 1.142185,-0.0641 h 1.142191 v 0.15816 c 0,0.0898 0.0372,0.34623 0.07968,0.56851 0.0425,0.22227 0.07968,0.50439 0.07968,0.62835 0,0.22228 0,0.22228 0.18594,0.2522 0.100936,0.0128 0.228436,0.0128 0.276253,0 0.07968,-0.0257 0.06906,-0.0427 -0.05311,-0.12396 -0.164688,-0.10263 -0.207192,-0.27784 -0.276253,-1.06863 l -0.03189,-0.41463 h 1.174066 c 1.078435,0 1.189993,-0.009 1.386562,-0.0898 0.207185,-0.0812 0.276246,-0.0854 1.657497,-0.0641 0.796878,0.0128 1.535316,0.0342 1.641564,0.0514 0.111559,0.0171 0.255,0.0812 0.339996,0.1496 0.100944,0.0855 0.20188,0.12396 0.318751,0.12396 0.143441,0 0.164687,0.0128 0.143441,0.0854 -0.02659,0.0812 0,0.0855 0.393124,0.0855 0.563122,0 0.919059,0.0427 0.919059,0.1069 0,0.03 0.05311,0.10691 0.116878,0.17526 0.08499,0.0854 0.127507,0.20518 0.154067,0.42744 0.0266,0.20518 0.0903,0.40182 0.20187,0.5899 0.13813,0.23935 0.18062,0.28211 0.2975,0.28211 0.0744,0 0.18063,-0.0384 0.23906,-0.0854 0.13282,-0.10691 0.30282,-0.11113 0.41437,-0.004 0.1275,0.11968 0.43564,0.0769 0.43564,-0.0598 0,-0.0514 0.0372,-0.11969 0.0797,-0.14962 0.11156,-0.0769 0.10094,-0.11541 -0.0478,-0.14532 -0.11156,-0.0214 -0.13281,-0.0641 -0.21781,-0.49585 -0.0531,-0.26075 -0.085,-0.48302 -0.0691,-0.49156 0.0106,-0.009 0.30812,-0.0214 0.65875,-0.0256 0.55781,-0.004 0.66937,0.009 0.84999,0.0855 0.11157,0.0514 0.22313,0.0898 0.24438,0.0898 0.0797,0 0.22312,-0.23081 0.255,-0.4018 l 0.0266,-0.17525 2.22062,-0.0128 c 1.74251,-0.009 2.22594,0.004 2.24188,0.0427 0.0106,0.0299 0.0584,0.38471 0.10094,0.79079 0.0691,0.71385 0.0797,0.74377 0.26562,1.00879 0.2125,0.31204 0.52593,0.66682 0.77563,0.88483 0.0903,0.0812 0.28156,0.29493 0.42499,0.47019 0.14344,0.17525 0.36125,0.41463 0.48876,0.53004 l 0.22843,0.20944 -0.55781,-0.0256 c -0.30812,-0.0171 -6.14125,-0.0384 -12.962495,-0.0514 -6.821247,-0.0128 -12.627809,-0.0342 -12.904055,-0.047 l -0.494067,-0.0256 0.180627,-0.15817 c 0.270936,-0.23082 0.435622,-0.42317 0.594997,-0.69675 0.111567,-0.19234 0.180628,-0.25219 0.286876,-0.27356 0.228437,-0.0384 0.302817,-0.0812 0.318751,-0.20517 0.01061,-0.0727 0.04781,-0.11114 0.111566,-0.11114 0.06372,0 0.175309,-0.13251 0.36656,-0.42745 0.265623,-0.41891 0.276253,-0.44028 0.276253,-0.78651 0,-0.19664 0.01591,-0.52578 0.03189,-0.7395 0.03189,-0.36333 0.04781,-0.39324 0.228431,-0.55996 l 0.19125,-0.17954 0.531253,-0.0128 c 0.292188,-0.004 0.584375,-0.0171 0.653436,-0.0213 0.106248,-0.009 0.116878,0.009 0.116878,0.17953 z m -9.913118,-0.0128 c 0.106249,0.0514 0.191244,0.11968 0.185933,0.15815 -0.0054,0.12824 -0.185933,0.32914 -0.308122,0.34195 -0.201879,0.0256 -0.270941,-0.0641 -0.270941,-0.33768 0,-0.22227 0.01061,-0.25219 0.100937,-0.25219 0.05841,0 0.19125,0.0384 0.292193,0.0897 z m -9.64219,0.7694 c 0.159375,0.047 0.164687,0.0556 0.164687,0.29923 0,0.13678 -0.02122,0.25218 -0.0425,0.25218 -0.05842,0 -0.472815,-0.3505 -0.49938,-0.42743 -0.02122,-0.047 0.08501,-0.1368 0.201881,-0.171 0.0054,0 0.07968,0.0214 0.17531,0.047 z m 0.913748,0.2693 c 0.122189,0.12396 0.350626,0.14534 0.525942,0.0556 0.143435,-0.0684 0.185933,-0.009 0.233748,0.29066 0.05311,0.36763 0.05842,0.36334 -0.610938,0.22655 -0.31875,-0.0641 -0.605625,-0.12823 -0.637501,-0.14105 -0.05311,-0.03 -0.06372,-0.40181 -0.01591,-0.51294 0.05311,-0.10691 0.371871,-0.0556 0.504683,0.0812 z" style="fill-opacity:1;stroke:#000;stroke-width:1.05833333;stroke-linecap:round;stroke-linejoin:round;stroke-miterlimit:4;stroke-dasharray:none;stroke-opacity:1;paint-order:markers fill stroke" transform="translate(-62.407 -229.74)"/>
</g>
</symbol>
</defs>
</svg>